<svg xmlns="http://www.w3.org/2000/svg" width="1200" height="256" viewBox="0 0 1200 256" fill="none" shape-rendering="geometricPrecision">
<defs>
  <linearGradient id="wordgrad" x1="0%" y1="0%" x2="100%" y2="0%">
    <stop offset="0%" stop-color="#00D4AA"/>
    <stop offset="100%" stop-color="#0099CC"/>
  </linearGradient>
</defs>
<rect x="32" y="32" width="192" height="192" fill="#0D1117"/>
<polygon points="68,68 104,68 134,188 68,188" fill="#00D4AA"/>
<polygon points="144,68 224,68 224,188 176,188" fill="#0099CC"/>
<rect x="80" y="87" width="22" height="14" fill="#0D1117"/>
<rect x="80" y="121" width="34" height="14" fill="#0D1117"/>
<rect x="80" y="155" width="46" height="14" fill="#0D1117"/>
<g transform="translate(286 160) scale(2.0)">
  <path d="M51.81,-2.78 Q48.19,-0.69 44.03,0.36 Q39.89,1.42 35.11,1.42 Q22.47,1.42 15.33,-6.19 Q8.20,-13.81 8.20,-27.30 Q8.20,-40.83 15.38,-48.47 Q22.56,-56.11 35.20,-56.11 Q39.59,-56.11 43.67,-55.08 Q47.75,-54.05 51.81,-51.91 L51.81,-38.81 Q48.69,-41.50 44.95,-42.94 Q41.22,-44.39 37.20,-44.39 Q30.22,-44.39 26.45,-39.94 Q22.70,-35.50 22.70,-27.30 Q22.70,-19.09 26.45,-14.69 Q30.22,-10.30 37.20,-10.30 Q41.36,-10.30 44.97,-11.69 Q48.58,-13.09 51.81,-15.92 L51.81,-2.78 Z M93.89,-70.22 L93.89,-54.69 L112.60,-54.69 L112.60,-43.70 L93.89,-43.70 L93.89,-17.83 Q93.89,-14.16 95.67,-12.56 Q97.46,-10.98 101.61,-10.98 L112.60,-10.98 L112.60,-0.00 L100.58,-0.00 Q88.28,-0.00 83.94,-3.92 Q79.60,-7.86 79.60,-18.50 L79.60,-43.70 L65.63,-43.70 L65.63,-54.69 L79.60,-54.69 L79.60,-70.22 L93.89,-70.22 Z M176.32,-54.69 L157.91,-28.52 L177.93,-0.00 L161.24,-0.00 L150.49,-18.41 L139.80,-0.00 L123.10,-0.00 L143.32,-28.52 L124.71,-54.69 L141.41,-54.69 L150.49,-38.38 L159.61,-54.69 L176.32,-54.69 Z M236.82,-39.59 Q234.47,-41.75 231.32,-42.81 Q228.18,-43.89 224.41,-43.89 Q219.88,-43.89 216.47,-42.30 Q213.08,-40.72 211.22,-37.70 Q210.05,-35.84 209.58,-33.20 Q209.13,-30.56 209.13,-25.20 L209.13,-0.00 L194.82,-0.00 L194.82,-54.69 L209.13,-54.69 L209.13,-46.19 Q211.22,-50.88 215.57,-53.44 Q219.93,-56.00 225.74,-56.00 Q228.66,-56.00 231.46,-55.30 Q234.27,-54.59 236.82,-53.22 L236.82,-39.59 Z M275.01,-25.69 Q266.99,-25.69 263.82,-23.62 Q260.65,-21.58 260.65,-16.61 Q260.65,-12.89 262.84,-10.69 Q265.04,-8.50 268.80,-8.50 Q274.46,-8.50 277.59,-12.77 Q280.71,-17.05 280.71,-24.70 L280.71,-25.69 L275.01,-25.69 Z M294.93,-31.20 L294.93,-0.00 L280.71,-0.00 L280.71,-6.11 Q278.13,-2.48 274.07,-0.53 Q270.02,1.42 265.13,1.42 Q255.80,1.42 250.60,-3.52 Q245.41,-8.45 245.41,-17.28 Q245.41,-26.86 251.62,-31.42 Q257.82,-35.98 270.80,-35.98 L280.71,-35.98 L280.71,-38.38 Q280.71,-41.84 278.20,-43.62 Q275.68,-45.41 270.80,-45.41 Q265.68,-45.41 260.87,-44.11 Q256.05,-42.83 250.84,-39.98 L250.84,-52.20 Q255.57,-54.16 260.45,-55.08 Q265.34,-56.00 270.80,-56.00 Q284.13,-56.00 289.52,-50.58 Q294.93,-45.17 294.93,-31.20 Z M335.74,5.91 Q332.87,13.62 328.84,17.16 Q324.81,20.70 319.04,20.70 L307.23,20.70 L307.23,9.81 L313.04,9.81 Q317.43,9.81 319.48,8.33 Q321.54,6.84 323.63,1.42 L324.71,-1.52 L303.90,-54.69 L318.95,-54.69 L331.45,-19.19 L343.42,-54.69 L358.45,-54.69 L335.74,5.91 Z" fill="url(#wordgrad)"/>
</g>
</svg>